<svg width="60" height="60" fill="none" xmlns="http://www.w3.org/2000/svg"><rect width="60" height="60" rx="30" fill="#fff"/><path fill-rule="evenodd" clip-rule="evenodd" d="M30 52.5C17.593 52.5 7.5 42.407 7.5 30c0-12.289 9.998-22.38 22.288-22.495l.084-.005.043.003.088-.003C42.407 7.5 52.5 17.593 52.5 30S42.407 52.5 30 52.5zm3.881-17.189c.392 1.7.59 3.655.59 5.81 0 4.044-.695 7.378-1.959 9.39l-.105.167.196-.025a20.993 20.993 0 0011.433-5.293l.072-.066-10.3-10.3.073.317zm-18.04 9.937l-.07-.066 10.251-10.251-.074.319c-.402 1.714-.606 3.69-.606 5.872 0 4.022.69 7.348 1.943 9.365l.105.168-.196-.027a20.993 20.993 0 01-11.353-5.38zm14.881 4.938l.17-.24c.92-1.3 1.903-4.302 1.903-8.824 0-4.523-.983-7.524-1.904-8.825l-.169-.24v18.13zm-3.703-9.064c0-4.41.958-7.412 1.856-8.75l.17-.254v18.008l-.17-.254c-.898-1.34-1.856-4.34-1.856-8.75zm18.275 2.986l.066-.072a20.995 20.995 0 005.291-11.412l.025-.193-.166.101c-2.022 1.24-5.336 1.924-9.33 1.924-2.197 0-4.185-.207-5.909-.615l-.32-.076 10.343 10.343zm-30.765-.194a21.005 21.005 0 01-5.18-11.29l-.024-.193.166.101c2.021 1.24 5.335 1.923 9.329 1.923 2.064 0 3.952-.184 5.61-.547l.31-.068-10.146 10.146-.065-.072zM32.38 30.892c1.314.912 4.316 1.887 8.8 1.887 4.482 0 7.484-.975 8.798-1.887l.244-.17H32.136l.245.17zm-13.56 1.887c-4.483 0-7.485-.975-8.8-1.887l-.244-.17h18.091l-.24.17c-1.296.912-4.29 1.887-8.807 1.887zm22.36-5.777c-4.448 0-7.45.967-8.777 1.873l-.249.17h18.052l-.25-.17c-1.326-.905-4.328-1.873-8.776-1.873zm-31.137 1.873c1.327-.906 4.33-1.873 8.777-1.873 4.491 0 7.486.968 8.792 1.873l.245.17H9.794l.249-.17zM28.876 9.936c-.92 1.302-1.904 4.304-1.904 8.826 0 4.521.983 7.523 1.904 8.825l.169.24V9.696l-.17.24zm2.016 17.575l-.17.254V9.758l.17.254c.898 1.339 1.856 4.34 1.856 8.75s-.958 7.41-1.855 8.749zm10.288-2.186c3.97 0 7.274.677 9.3 1.906l.167.101-.027-.194a20.998 20.998 0 00-5.373-11.296l-.065-.071-10.25 10.25.32-.076c1.726-.412 3.72-.62 5.928-.62zm-31.8 1.813c.573-4.12 2.441-8.09 5.26-11.175l.065-.072 10.053 10.053-.311-.069c-1.662-.365-3.555-.55-5.628-.55-3.97 0-7.272.676-9.3 1.905l-.166.102.027-.194zM32.538 9.49c1.218 2.031 1.888 5.324 1.888 9.272 0 2.114-.192 4.038-.57 5.72l-.07.313 10.2-10.2-.073-.066a21.002 21.002 0 00-11.283-5.18l-.19-.024.098.165zm-16.574 5.15c3.066-2.803 7.01-4.668 11.102-5.252l.192-.027-.098.167c-1.203 2.035-1.864 5.314-1.864 9.234 0 2.089.187 3.994.557 5.662l.069.312-10.03-10.03.072-.066z" fill="#133878"/></svg>