<svg width="60" height="60" fill="none" xmlns="http://www.w3.org/2000/svg"><path fill-rule="evenodd" clip-rule="evenodd" d="M30 60c16.569 0 30-13.431 30-30C60 13.431 46.569 0 30 0 13.431 0 0 13.431 0 30c0 16.569 13.431 30 30 30z" fill="#fff"/><path d="M28.114 32.908l-7.291 7.333c-1.006 1.012-2.766 1.012-3.772 0l-8.297-8.344c-1.005-1.012-1.005-2.782 0-3.794l8.297-8.344c1.006-1.012 2.766-1.012 3.772 0l7.291 7.333c1.006 1.011 2.766 1.011 3.772 0l7.291-7.333c1.006-1.012 2.766-1.012 3.772 0l8.297 8.344c1.005 1.012 1.005 2.782 0 3.794l-8.297 8.344c-1.006 1.012-2.766 1.012-3.772 0l-7.291-7.333c-1.132-1.011-2.766-1.011-3.772 0z" fill="#9201E4"/></svg>