<svg width="60" height="60" fill="none" xmlns="http://www.w3.org/2000/svg"><rect width="60" height="60" rx="30" fill="#fff"/><path fill-rule="evenodd" clip-rule="evenodd" d="M51.999 27.14a5.668 5.668 0 010 5.72l-8.522 14.577a5.668 5.668 0 01-4.893 2.808H21.416a5.668 5.668 0 01-4.893-2.808L8.001 32.861a5.668 5.668 0 010-5.722l8.522-14.576a5.669 5.669 0 014.893-2.808h17.168a5.668 5.668 0 014.893 2.808L52 27.139zm-37.812 5.088l6.3 10.776a2.21 2.21 0 00-.442 1.329c0 1.214.972 2.199 2.172 2.199 1.137 0 2.07-.886 2.163-2.013h11.262c.03.309.125.599.268.856a2.122 2.122 0 001.88 1.149 2.1 2.1 0 001.54-.67c.397-.398.643-.95.643-1.56 0-.511-.172-.981-.461-1.355l6.293-10.764c.15.033.304.05.463.05 1.199 0 2.171-.985 2.171-2.199s-.972-2.198-2.171-2.198c-.073 0-.145.003-.217.01L39.638 16.87c.2-.332.315-.722.315-1.14 0-.75-.372-1.414-.94-1.81a2.097 2.097 0 00-1.73-.33 2.187 2.187 0 00-1.574 1.483H24.265a2.208 2.208 0 00-.145-.33 2.123 2.123 0 00-1.914-1.215 2.13 2.13 0 00-2.028 1.507 2.221 2.221 0 00.142 1.838l-6.433 11.004a2.19 2.19 0 00-.179-.003h-.002c-1.174 0-2.125.964-2.125 2.152 0 .177.02.348.06.513a2.179 2.179 0 002.546 1.69zm1.397-3.355c.222.345.35.756.35 1.198 0 .393-.101.763-.28 1.082l3.805 6.673 12.954-6.887a2.245 2.245 0 01-.01-.209c0-1.214.972-2.198 2.171-2.198 1.2 0 2.171.984 2.171 2.198 0 1.215-.972 2.199-2.17 2.199a2.14 2.14 0 01-1.182-.354l-12.99 6.907 1.523 2.672a2.16 2.16 0 012.12.994l11.943-.065a2.163 2.163 0 012.256-.942l6.257-10.836a2.207 2.207 0 01-.405-1.279c0-.576.218-1.1.576-1.492l-3.962-6.949-13.383 7.116c.002.034.002.07.002.104 0 1.215-.972 2.2-2.17 2.2-1.2 0-2.172-.985-2.172-2.2 0-1.214.972-2.198 2.171-2.198.474 0 .912.154 1.27.414l13.338-7.092-1.221-2.141a2.14 2.14 0 01-.764.14 2.172 2.172 0 01-2.004-1.35l-11.557.063a2.172 2.172 0 01-2.342 1.33l-6.295 10.902z" fill="#1CA3C2"/></svg>