<svg width="60" height="60" fill="none" xmlns="http://www.w3.org/2000/svg"><rect width="60" height="60" rx="30" fill="#fff"/><path fill-rule="evenodd" clip-rule="evenodd" d="M33.828 9.585a5.413 5.413 0 00-7.656 0L9.585 26.172a5.413 5.413 0 000 7.656l16.587 16.586a5.413 5.413 0 007.656 0l4.395-4.395v-2.785l-.513-.213-5.298 5.23a3.609 3.609 0 01-5.08-.008L11.607 32.614a3.609 3.609 0 01.016-5.136L27.35 12.042a3.609 3.609 0 015.047-.009L48.228 27.47a3.609 3.609 0 01.016 5.152l-6.956 6.867-8.513-8.17a3.158 3.158 0 10-1.781 1.604l8.518 8.015.002-.002.036.037.12.113-.004.004.619.628v2.24l.02-.021v6.045a1.158 1.158 0 102.316 0v-8.361l7.794-7.794a5.413 5.413 0 000-7.656L33.828 9.585z" fill="#1CB5E0"/></svg>