<svg width="41" height="40" fill="none" xmlns="http://www.w3.org/2000/svg"><g clip-path="url(#clip0_1_259)"><rect x=".971" width="40" height="40" rx="20" fill="#2893B7"/><path fill-rule="evenodd" clip-rule="evenodd" d="M32.45 20L20.971 8.667 9.491 20l11.48 11.333L32.451 20zm-1.812 0l-9.667-9.544L11.304 20l9.667 9.544L30.638 20z" fill="#fff"/><path fill-rule="evenodd" clip-rule="evenodd" d="M20.971 20l-9.666-9.544L1.638 20l9.667 9.544L20.97 20zm-1.812 0l-7.854-7.755L3.45 20l7.855 7.754L19.159 20z" fill="#fff"/><path fill-rule="evenodd" clip-rule="evenodd" d="M40.304 20l-9.666-9.544L20.97 20l9.667 9.544L40.304 20zm-1.812 0l-7.854-7.755L22.784 20l7.854 7.754L38.492 20z" fill="#fff"/></g><defs><clipPath id="clip0_1_259"><path fill="#fff" transform="translate(.971)" d="M0 0h40v40H0z"/></clipPath></defs></svg>